<svg id="Layer_1" data-name="Layer 1" xmlns="http://www.w3.org/2000/svg" viewBox="0 0 163.12 262"><defs><style>.cls-1{fill:#067bc2;}</style></defs><path class="cls-1" d="M76.88,164.91a49.35,49.35,0,0,0,8.84.78h.91V121.52l-9.75-2.6Z"/><path class="cls-1" d="M53.63,83.32c0,4.67,1.53,8.36,4.61,11s7.6,4.81,13.58,6.37l1.82.52V62.53q-9.49,1-14.75,6.69A19.89,19.89,0,0,0,53.63,83.32Z"/><path class="cls-1" d="M76.88,62.27V102l9.75,2.6V63.05a48.56,48.56,0,0,0-8.71-.78Z"/><path class="cls-1" d="M88.74,24.51V0H74.37V24.51H0l41.41,213h33V262H88.74V237.49H120l43.11-213ZM110,158.87q-7.4,8-20.13,9.42v11.17H86.63V168.55H84.68a39.68,39.68,0,0,1-7.8-.78v11.69H73.64V167a50.33,50.33,0,0,1-12.74-5.33l-11,5.59H47V133.86h2.86L61,158a39.44,39.44,0,0,0,12.61,6.11v-46l-3.51-.91q-11.31-3-17-10.2a26.69,26.69,0,0,1-5.72-17.09q0-12.6,7-20.78t19.3-9.49V49.54h3.24v9.87h.91a51.57,51.57,0,0,1,8.84.65V49.54h3.25v11A51.53,51.53,0,0,1,99,63.44l9.48-4h2.86V85.92h-2.86L99.1,67a42.5,42.5,0,0,0-9.22-3.25v41.7l5.19,1.43q11.31,2.86,16.83,9.81t5.52,21.12Q117.42,150.89,110,158.87Z"/><path class="cls-1" d="M91.69,122.81l-1.81-.52v43.14q9.87-1,16-7t6.17-15.79q0-7.92-4.8-12.53T91.69,122.81Z"/></svg>