<svg id="Layer_1" data-name="Layer 1" xmlns="http://www.w3.org/2000/svg" viewBox="0 0 1538.61 308.21"><defs><style>.cls-1{font-size:180px;}.cls-1,.cls-3{fill:#067bc2;}.cls-1,.cls-2{font-family:Prata-Regular, Prata;}.cls-2{font-size:85.87px;fill:#2e2c2f;letter-spacing:0.07em;}</style></defs><text class="cls-1" transform="translate(200.5 162)">JOHN LAZEEZ</text><text class="cls-2" transform="matrix(1, 0, 0, 1, 202.1, 277.12)">MEMORIAL SCHOLARSHIP</text><path class="cls-3" d="M76.88,179.33a49.35,49.35,0,0,0,8.84.78h.91V135.93l-9.75-2.6Z"/><path class="cls-3" d="M53.63,97.74q0,7,4.61,11t13.58,6.36l1.82.52V77q-9.49,1-14.75,6.69A19.89,19.89,0,0,0,53.63,97.74Z"/><path class="cls-3" d="M76.88,76.69v39.75l9.75,2.6V77.47a48.56,48.56,0,0,0-8.71-.78Z"/><path class="cls-3" d="M88.74,38.93V14.42H74.37V38.93H0l41.41,213h33v24.51H88.74V251.91H120l43.11-213ZM110,173.29q-7.4,8-20.13,9.41v11.18H86.63V183H84.68a39.68,39.68,0,0,1-7.8-.78v11.7H73.64V181.41a50.69,50.69,0,0,1-12.74-5.33l-11,5.58H47V148.27h2.86L61,172.44a39.65,39.65,0,0,0,12.61,6.11v-46l-3.51-.91q-11.31-3-17-10.19a26.71,26.71,0,0,1-5.72-17.09q0-12.6,7-20.79t19.3-9.48V64h3.24v9.87h.91a51.57,51.57,0,0,1,8.84.65V64h3.25V75A49.92,49.92,0,0,1,99,77.86l9.48-4h2.86v26.5h-2.86l-9.35-19a42.43,42.43,0,0,0-9.22-3.24v41.7l5.19,1.43q11.31,2.86,16.83,9.81t5.52,21.11Q117.42,165.3,110,173.29Z"/><path class="cls-3" d="M91.69,137.23l-1.81-.52v43.14q9.87-1,16-6.95t6.17-15.79q0-7.92-4.8-12.54T91.69,137.23Z"/></svg>