<svg id="Layer_1" data-name="Layer 1" xmlns="http://www.w3.org/2000/svg" viewBox="0 0 1531.59 264.04"><defs><style>.cls-1{fill:#067bc2;}.cls-2{fill:#2e2c2f;}</style></defs><path class="cls-1" d="M208.87,160.92q-7.11-4.68-7.11-13.68a13.82,13.82,0,0,1,3.33-9.63,11.2,11.2,0,0,1,8.73-3.69,9.66,9.66,0,0,1,6.84,2.34,13.25,13.25,0,0,1,3.51,5,13.43,13.43,0,0,1,1,3.33q-5.22,3.78-5.22,8.82a8.18,8.18,0,0,0,2.16,5.76,7.68,7.68,0,0,0,5.94,2.34q5.76,0,9.09-7.83t3.33-27.09V24.48L223.9,22V18h52.2v4l-16.56,2.52V126.54q0,12.6-2.43,21a23.35,23.35,0,0,1-9.63,13.23q-7.2,4.86-20.7,4.86Q216,165.6,208.87,160.92Z" transform="translate(0 -14.4)"/><path class="cls-1" d="M323.62,156.06a64.78,64.78,0,0,1-24.12-26.73q-8.64-17.19-8.64-39.33t8.64-39.33a64.78,64.78,0,0,1,24.12-26.73q15.48-9.54,35.1-9.54t35.1,9.54a64.78,64.78,0,0,1,24.12,26.73q8.64,17.19,8.64,39.33t-8.64,39.33a64.78,64.78,0,0,1-24.12,26.73q-15.48,9.54-35.1,9.54T323.62,156.06ZM382,154.62q10.35-6.84,16.29-19.89t5.94-30.87V76.14q0-17.82-5.94-30.87T382,25.38a43.29,43.29,0,0,0-46.71,0q-10.26,6.84-16.2,19.89t-5.94,30.87v27.72q0,17.82,5.94,30.87t16.2,19.89a43.29,43.29,0,0,0,46.71,0Z" transform="translate(0 -14.4)"/><path class="cls-1" d="M443.5,162v-3.78l16.56-2.7v-131L443.5,22V18h52.92v4l-16.56,2.52v59h68.4v-59L531.52,22V18H584.8v4l-16.74,2.52v131l16.74,2.7V162H531.52v-3.78l16.74-2.7V88h-68.4v67.5l16.56,2.7V162Z" transform="translate(0 -14.4)"/><path class="cls-1" d="M599.74,162v-3.78l16.74-7.2V29l-16.74-7V18h33.48L710.8,126.72V29l-16.74-7V18H732.4v4l-17.1,7V162h-4.5L621,35.82V151l17.28,7.2V162Z" transform="translate(0 -14.4)"/><path class="cls-1" d="M788.74,162v-3.78l16.56-2.7v-131L788.74,22V18h52.92v4L825.1,24.48v133.2h53.82l14.76-39.6h4.86V162Z" transform="translate(0 -14.4)"/><path class="cls-1" d="M898,162v-3.78l17.64-7.2,52-136.62h2.88l49.14,141.12,16.56,2.7V162H983.32v-3.78l14.76-2.34-15.3-42.66H934.9L920.32,151l16.2,7.2V162Zm38.34-52.56h45.18l-21.6-63.36Z" transform="translate(0 -14.4)"/><path class="cls-1" d="M1038.4,162v-4.32L1122.64,22.5h-55.8l-18.54,36h-4.68l4.32-40.5h99v4.5l-84.42,135.18h63l18.54-38.7h4.68l-4.32,43Z" transform="translate(0 -14.4)"/><path class="cls-1" d="M1163,162v-3.78l16.56-2.7v-131L1163,22V18h108.36V59.22h-4.86L1252.6,22.5h-53.28V87.3h23.4l10.62-26.1H1238v56.88h-4.68l-10.8-26.46h-23.22v66.06h56.52l14.76-39.6h4.68V162Z" transform="translate(0 -14.4)"/><path class="cls-1" d="M1292.73,162v-3.78l16.56-2.7v-131L1292.73,22V18h108.36V59.22h-4.86L1382.37,22.5h-53.28V87.3h23.4l10.62-26.1h4.68v56.88h-4.68l-10.8-26.46h-23.22v66.06h56.52l14.76-39.6h4.68V162Z" transform="translate(0 -14.4)"/><path class="cls-1" d="M1421.25,162v-4.32L1505.49,22.5h-55.8l-18.54,36h-4.68l4.32-40.5h99v4.5l-84.42,135.18h63l18.54-38.7h4.68l-4.32,43Z" transform="translate(0 -14.4)"/><path class="cls-2" d="M241.25,277.92l-25.68-66.43.08,60.36,8.25,3.43v1.8l-18.37,0V275.3l8.07-3.44-.08-60.37-7.9-1.19v-1.89l19,0,21.63,55.09,21.91-55.15,17.34,0v1.89l-7.9,1.22.08,62.51,7.9,1.28V277l-25.24,0v-1.8l7.9-1.3L268.13,214l-25.34,63.92Z" transform="translate(0 -14.4)"/><path class="cls-2" d="M298,277v-1.8l7.9-1.3-.08-62.51-7.9-1.19v-1.89l51.7-.07,0,19.66h-2.32l-6.63-17.51-25.42,0,0,30.91h11.17l5-12.46h2.23l0,27.13h-2.23l-5.17-12.62-11.07,0,0,31.51,27,0,7-18.9h2.23l0,21Z" transform="translate(0 -14.4)"/><path class="cls-2" d="M401.22,277.7l-25.68-66.42.08,60.36,8.25,3.42v1.81l-18.37,0v-1.8l8.07-3.45-.08-60.36-7.9-1.19V208.2l19,0,21.63,55.1,21.91-55.16,17.34,0V210l-7.9,1.21.08,62.52,7.9,1.27v1.81l-25.25,0V275l7.9-1.3-.08-59.94L402.77,277.7Z" transform="translate(0 -14.4)"/><path class="cls-2" d="M474.8,273.91a30.8,30.8,0,0,1-11.52-12.73,44.74,44.74,0,0,1,0-37.53,30.88,30.88,0,0,1,11.49-12.76,33.06,33.06,0,0,1,33.49,0,31,31,0,0,1,11.52,12.74,44.72,44.72,0,0,1,0,37.52,30.91,30.91,0,0,1-11.49,12.77,33.09,33.09,0,0,1-33.49,0Zm27.87-.72a21.91,21.91,0,0,0,7.75-9.5A35.13,35.13,0,0,0,513.24,249l0-13.22A35.44,35.44,0,0,0,510.37,221a21.89,21.89,0,0,0-7.79-9.47,20.64,20.64,0,0,0-22.28,0,21.94,21.94,0,0,0-7.71,9.49,35.2,35.2,0,0,0-2.82,14.73l0,13.23a35.39,35.39,0,0,0,2.85,14.72,22.05,22.05,0,0,0,7.74,9.48,20.65,20.65,0,0,0,22.29,0Z" transform="translate(0 -14.4)"/><path class="cls-2" d="M580.25,275.15q-2.41-2.32-3.27-7.9l-1.65-11.5a16.35,16.35,0,0,0-4-9.14q-3.14-3.3-9.75-3.3h-6.69l0,30.23,7.9,1.28v1.8l-25.24,0v-1.8l7.9-1.3-.08-62.51-7.9-1.19V208l24,0q14,0,20.27,4.35t6.28,13.3q0,14.78-17.83,17.11v.52a18.8,18.8,0,0,1,10.61,4.71,17.2,17.2,0,0,1,5,10l1.13,7.38a22.84,22.84,0,0,0,1.6,6.52,3,3,0,0,0,2.79,1.72,5.74,5.74,0,0,0,2.75-.82,12.56,12.56,0,0,0,2.74-2.11l1.46,1.54a15.58,15.58,0,0,1-5.14,4.05,14,14,0,0,1-5.75,1.21Q582.66,277.46,580.25,275.15Zm-15.76-33.9q6.27,0,9.74-3.83t3.47-11.3v-1.8q0-14.26-16.16-14.24h-6.7l0,31.17Z" transform="translate(0 -14.4)"/><path class="cls-2" d="M605.58,276.57v-1.8l7.9-1.3L613.39,211l-7.9-1.19v-1.89l25.25,0v1.88l-7.9,1.22.08,62.51,7.91,1.28v1.8Z" transform="translate(0 -14.4)"/><path class="cls-2" d="M637.44,276.53v-1.8l8.41-3.45,24.73-65.21H672l23.53,67.29,7.9,1.28v1.8l-25.25,0v-1.81l7-1.12-7.33-20.34-22.84,0-6.93,18,7.73,3.42v1.81Zm18.26-25.1,21.55,0L666.9,221.19Z" transform="translate(0 -14.4)"/><path class="cls-2" d="M710.6,276.43v-1.8l7.89-1.3-.08-62.51-7.9-1.19v-1.89l25.24,0v1.88l-7.89,1.22.08,63.54,25.68,0,7-18.9H763l0,21Z" transform="translate(0 -14.4)"/><path class="cls-2" d="M811.75,273.47l-7.3,3.7h-1.89l0-22.07h1.89l7.41,16a27.49,27.49,0,0,0,16.32,5.05,19.29,19.29,0,0,0,12.49-4q4.93-4,4.92-11.22a10.93,10.93,0,0,0-3.19-8.28q-3.18-3-10.31-4.84l-14.26-3.67q-7.47-2-11.25-6.72a17.64,17.64,0,0,1-3.8-11.29,22.73,22.73,0,0,1,2.35-10.52,16.74,16.74,0,0,1,6.9-7.14,22,22,0,0,1,10.82-2.55,35.16,35.16,0,0,1,14,2.65l6.26-2.67H845l0,17.52h-1.89l-6.2-12.53a32,32,0,0,0-14-3.07q-7.47,0-11.76,3.84a12.83,12.83,0,0,0-4.28,10.09,9.17,9.17,0,0,0,3.06,7.3,21.91,21.91,0,0,0,9,4.19l15.37,4q7.47,1.88,11.13,6.47t3.67,14q0,9.53-5.86,14.94T827.47,278A30.75,30.75,0,0,1,811.75,273.47Z" transform="translate(0 -14.4)"/><path class="cls-2" d="M878.89,273.38A29.78,29.78,0,0,1,868,260.68a43.92,43.92,0,0,1-3.84-18.8A43.26,43.26,0,0,1,868.05,223a29.66,29.66,0,0,1,11.06-12.72,30.25,30.25,0,0,1,16.52-4.53,23.42,23.42,0,0,1,7.52,1.27,24.74,24.74,0,0,1,6.92,3.6l5.74-4.9h1.81l0,21.29h-1.8l-5.34-13.3a23.53,23.53,0,0,0-7-4.37,20.87,20.87,0,0,0-7.86-1.62,18.54,18.54,0,0,0-10.6,3.11,20.19,20.19,0,0,0-7.16,9A35.14,35.14,0,0,0,875.32,234l0,15.71a36.19,36.19,0,0,0,2.51,14.08,20.33,20.33,0,0,0,7,9.05,17.7,17.7,0,0,0,10.48,3.12,21.45,21.45,0,0,0,8.75-1.94,21.18,21.18,0,0,0,7.3-5.21l5-13.83h1.8l0,22.07h-1.8l-6.19-4.37a23.47,23.47,0,0,1-7,3.87,23.8,23.8,0,0,1-7.81,1.39A29.69,29.69,0,0,1,878.89,273.38Z" transform="translate(0 -14.4)"/><path class="cls-2" d="M932.56,276.14v-1.8l7.9-1.3-.08-62.52-7.9-1.19v-1.89l25.25,0v1.89l-7.9,1.21,0,28.17,32.63-.05,0-28.16-8-1.19v-1.89l25.42,0v1.89l-8,1.22L992,273l8,1.28v1.8l-25.42,0v-1.8l8-1.3,0-32.2-32.63,0,0,32.2,7.9,1.28v1.8Z" transform="translate(0 -14.4)"/><path class="cls-2" d="M1029.25,273.18a31,31,0,0,1-11.53-12.74,44.82,44.82,0,0,1-.05-37.52,30.62,30.62,0,0,1,28.23-17.34,30.62,30.62,0,0,1,28.28,17.26,44.82,44.82,0,0,1,0,37.52,30.84,30.84,0,0,1-11.49,12.77,33.06,33.06,0,0,1-33.49.05Zm27.86-.73a21.8,21.8,0,0,0,7.76-9.5,35.29,35.29,0,0,0,2.81-14.73V235a35.23,35.23,0,0,0-2.86-14.72,21.85,21.85,0,0,0-7.78-9.48,20.64,20.64,0,0,0-22.28,0,21.93,21.93,0,0,0-7.72,9.5,35.29,35.29,0,0,0-2.81,14.73v13.22a35.2,35.2,0,0,0,2.86,14.72,21.91,21.91,0,0,0,7.74,9.48,20.64,20.64,0,0,0,22.28,0Z" transform="translate(0 -14.4)"/><path class="cls-2" d="M1092,275.93v-1.81l7.9-1.3-.09-62.51-7.9-1.19v-1.89l25.25,0v1.89l-7.9,1.21.08,63.54,25.68,0,7-18.9h2.32l0,21Z" transform="translate(0 -14.4)"/><path class="cls-2" d="M1149.72,275.85v-1.8l8.41-3.45,24.73-65.21h1.37l23.54,67.29,7.9,1.28v1.8l-25.24,0V274l7-1.12-7.32-20.34-22.84,0-6.94,18,7.74,3.42v1.81Zm18.26-25.1,21.55,0-10.34-30.21Z" transform="translate(0 -14.4)"/><path class="cls-2" d="M1265.56,274.24q-2.41-2.33-3.28-7.9l-1.64-11.5a16.38,16.38,0,0,0-4-9.14q-3.14-3.3-9.75-3.3h-6.7l0,30.23,7.91,1.28v1.8l-25.25,0V274l7.9-1.3-.09-62.51-7.9-1.19v-1.89l24,0q14,0,20.27,4.35t6.29,13.3q0,14.77-17.84,17.11v.52a18.89,18.89,0,0,1,10.62,4.7,17.25,17.25,0,0,1,5,10l1.13,7.39a22.59,22.59,0,0,0,1.6,6.52,3,3,0,0,0,2.79,1.72,5.79,5.79,0,0,0,2.74-.82,12.61,12.61,0,0,0,2.75-2.11l1.46,1.54a15.44,15.44,0,0,1-5.15,4,13.66,13.66,0,0,1-5.75,1.21C1269.57,276.55,1267.16,275.78,1265.56,274.24Zm-15.76-33.9c4.18,0,7.42-1.28,9.74-3.84s3.47-6.31,3.46-11.29V223.4q0-14.25-16.16-14.23h-6.7l0,31.17Z" transform="translate(0 -14.4)"/><path class="cls-2" d="M1302.39,272.81l-7.29,3.71h-1.89l0-22.07h1.89l7.4,16a27.47,27.47,0,0,0,16.33,5c5,0,9.2-1.34,12.48-4s4.93-6.4,4.93-11.21A11,11,0,0,0,1333,252q-3.18-3-10.31-4.84l-14.26-3.67q-7.47-2-11.26-6.73a17.59,17.59,0,0,1-3.79-11.28,22.55,22.55,0,0,1,2.35-10.53,16.77,16.77,0,0,1,6.9-7.13,22,22,0,0,1,10.82-2.55,35,35,0,0,1,14,2.64l6.27-2.67h1.89l0,17.52h-1.89l-6.2-12.53a31.91,31.91,0,0,0-14-3.07q-7.47,0-11.76,3.84a12.85,12.85,0,0,0-4.28,10.09,9.25,9.25,0,0,0,3.06,7.3,22,22,0,0,0,9,4.19l15.38,4q7.47,1.88,11.13,6.46c2.43,3.06,3.66,7.71,3.66,13.95s-1.94,11.34-5.86,15-9.17,5.42-15.75,5.43A30.61,30.61,0,0,1,1302.39,272.81Z" transform="translate(0 -14.4)"/><path class="cls-2" d="M1353.66,275.58v-1.8l7.9-1.3-.08-62.52-7.9-1.19v-1.89l25.24,0v1.89l-7.89,1.21,0,28.17,32.63-.05,0-28.16-8-1.19v-1.89l25.41,0v1.89l-8,1.22.08,62.51,8,1.28v1.8l-25.41,0v-1.8l8-1.3,0-32.2-32.63,0,0,32.2,7.9,1.28v1.8Z" transform="translate(0 -14.4)"/><path class="cls-2" d="M1433.51,275.47v-1.8l7.9-1.3-.08-62.51-7.9-1.19v-1.89l25.25,0v1.89l-7.9,1.22.08,62.51,7.91,1.28v1.8Z" transform="translate(0 -14.4)"/><path class="cls-2" d="M1471.21,273.62l7.89-1.3-.08-62.51-7.9-1.19v-1.89l27,0q12.7,0,18.9,5.39t6.2,15.62q0,10.22-6.16,15.63t-18.88,5.44h-9.62l0,23.53,7.9,1.28v1.8l-25.25,0Zm25.72-26.91q15.88,0,15.86-17.28V226q0-17.18-15.91-17.15h-8.41l0,37.87Z" transform="translate(0 -14.4)"/><path class="cls-1" d="M76.88,179.33a49.35,49.35,0,0,0,8.84.78h.91V135.93l-9.75-2.6Z" transform="translate(0 -14.4)"/><path class="cls-1" d="M53.63,97.74q0,7,4.61,11t13.58,6.36l1.82.52V77q-9.49,1-14.75,6.69A19.89,19.89,0,0,0,53.63,97.74Z" transform="translate(0 -14.4)"/><path class="cls-1" d="M76.88,76.69v39.75l9.75,2.6V77.47a48.56,48.56,0,0,0-8.71-.78Z" transform="translate(0 -14.4)"/><path class="cls-1" d="M88.74,38.93V14.42H74.37V38.93H0l41.41,213h33v24.51H88.74V251.91H120l43.11-213ZM110,173.29q-7.4,8-20.13,9.41v11.18H86.63V183H84.68a39.68,39.68,0,0,1-7.8-.78v11.7H73.64V181.41a50.69,50.69,0,0,1-12.74-5.33l-11,5.58H47V148.27h2.86L61,172.44a39.65,39.65,0,0,0,12.61,6.11v-46l-3.51-.91q-11.31-3-17-10.19a26.71,26.71,0,0,1-5.72-17.09q0-12.6,7-20.79t19.3-9.48V64h3.24v9.87h.91a51.57,51.57,0,0,1,8.84.65V64h3.25V75A49.92,49.92,0,0,1,99,77.86l9.48-4h2.86v26.5h-2.86l-9.35-19a42.43,42.43,0,0,0-9.22-3.24v41.7l5.19,1.43q11.31,2.86,16.83,9.81t5.52,21.11Q117.42,165.3,110,173.29Z" transform="translate(0 -14.4)"/><path class="cls-1" d="M91.69,137.23l-1.81-.52v43.14q9.87-1,16-6.95t6.17-15.79q0-7.92-4.8-12.54T91.69,137.23Z" transform="translate(0 -14.4)"/></svg>